<?xml version="1.0" encoding="utf-8"?>
<!-- Generator: Adobe Illustrator 16.0.3, SVG Export Plug-In . SVG Version: 6.00 Build 0)  -->
<!DOCTYPE svg PUBLIC "-//W3C//DTD SVG 1.1//EN" "http://www.w3.org/Graphics/SVG/1.1/DTD/svg11.dtd">
<svg version="1.1" id="Layer_1" xmlns="http://www.w3.org/2000/svg" xmlns:xlink="http://www.w3.org/1999/xlink" x="0px" y="0px"
	 width="2000px" height="1000px" viewBox="0 0 2000 1000" enable-background="new 0 0 2000 1000" xml:space="preserve">
<g>
	<path fill-rule="evenodd" clip-rule="evenodd" fill="#A8C871" d="M956.893,42.032c390.17,0,706.503,205.079,706.503,457.969
		c0,252.888-316.333,457.967-706.503,457.967c-390.16,0-706.495-205.079-706.495-457.967
		C250.397,247.111,566.733,42.032,956.893,42.032z"/>
	<path fill-rule="evenodd" clip-rule="evenodd" fill="#565656" d="M172.096,343.397c17.204-38.091,48.812-69.588,90.811-85.449
		L750.477,72.749c40.881-15.414,82.208-13.182,121.637,3.016l428.479,166.654c41.889,16.309,73.276,48.034,90.032,86.234
		c57.86,131.696-71.936,270.534-206.978,218.039L807.218,400.25L377.287,563.448c-41.997,15.859-86.343,13.177-124.098-4.026
		c-37.868-17.202-69.253-49.031-85.003-91.256C152.324,425.945,155.005,381.373,172.096,343.397z"/>
	
		<path fill-rule="evenodd" clip-rule="evenodd" fill="none" stroke="#FFFFFF" stroke-width="78.1896" stroke-linecap="round" stroke-linejoin="round" stroke-miterlimit="10" d="
		M750.477,72.749c40.881-15.414,82.208-13.182,121.637,3.016l428.479,166.654c41.889,16.309,73.276,48.034,90.032,86.234
		c57.86,131.696-71.936,270.534-206.978,218.039L807.218,400.25L377.287,563.448c-41.997,15.859-86.343,13.177-124.098-4.026
		c-37.868-17.202-69.253-49.031-85.003-91.256c-15.862-42.221-13.181-86.792,3.909-124.769
		c17.204-38.091,48.812-69.588,90.811-85.449L750.477,72.749z"/>
	<path fill-rule="evenodd" clip-rule="evenodd" fill="#238AAD" d="M816.825,454.094l429.932,163.191l376.539-146.437
		c134.932-52.501,264.838,86.343,206.867,218.037c-16.755,38.2-48.144,69.922-90.03,86.229l-428.478,166.653
		c-39.434,16.199-80.759,18.437-121.644,2.909L702.444,759.592c-41.998-15.865-73.61-47.472-90.7-85.452
		c-17.2-37.979-19.772-82.658-4.02-124.769c15.75-42.335,47.138-74.056,85.003-91.258
		C730.481,440.802,774.937,438.119,816.825,454.094z"/>
	
		<path fill-rule="evenodd" clip-rule="evenodd" fill="none" stroke="#FFFFFF" stroke-width="78.1896" stroke-linecap="round" stroke-linejoin="round" stroke-miterlimit="10" d="
		M1190.012,944.678c40.885,15.527,82.21,13.29,121.644-2.909l428.478-166.653c41.887-16.308,73.275-48.029,90.03-86.229
		c57.971-131.694-71.936-270.538-206.867-218.037l-376.539,146.437L816.825,454.094c-41.888-15.975-86.344-13.183-124.098,4.019
		c-37.865,17.203-69.253,48.923-85.003,91.258c-15.752,42.11-13.181,86.79,4.02,124.769c17.09,37.98,48.702,69.587,90.7,85.452
		L1190.012,944.678z"/>
	<path fill-rule="evenodd" clip-rule="evenodd" fill="#A8C871" d="M956.893,42.032c390.17,0,706.503,205.079,706.503,457.969
		c0,252.888-316.333,457.967-706.503,457.967c-390.16,0-706.495-205.079-706.495-457.967
		C250.397,247.111,566.733,42.032,956.893,42.032z"/>
	<path fill-rule="evenodd" clip-rule="evenodd" fill="#333333" d="M172.096,343.397c17.204-38.091,48.812-69.588,90.811-85.449
		L750.477,72.749c40.881-15.414,82.208-13.182,121.637,3.016l428.479,166.654c41.889,16.309,73.276,48.034,90.032,86.234
		c57.86,131.696-71.936,270.534-206.978,218.039L807.218,400.25L377.287,563.448c-41.997,15.859-86.343,13.177-124.098-4.026
		c-37.868-17.202-69.253-49.031-85.003-91.256C152.324,425.945,155.005,381.373,172.096,343.397z"/>
	
		<path fill-rule="evenodd" clip-rule="evenodd" fill="none" stroke="#FFFFFF" stroke-width="78.1896" stroke-linecap="round" stroke-linejoin="round" stroke-miterlimit="10" d="
		M750.477,72.749c40.881-15.414,82.208-13.182,121.637,3.016l428.479,166.654c41.889,16.309,73.276,48.034,90.032,86.234
		c57.86,131.696-71.936,270.534-206.978,218.039L807.218,400.25L377.287,563.448c-41.997,15.859-86.343,13.177-124.098-4.026
		c-37.868-17.202-69.253-49.031-85.003-91.256c-15.862-42.221-13.181-86.792,3.909-124.769
		c17.204-38.091,48.812-69.588,90.811-85.449L750.477,72.749z"/>
	<path fill-rule="evenodd" clip-rule="evenodd" fill="#5096B0" d="M816.825,454.094l429.932,163.191l376.539-146.437
		c134.932-52.501,264.838,86.343,206.867,218.037c-16.755,38.2-48.144,69.922-90.03,86.229l-428.478,166.653
		c-39.434,16.199-80.759,18.437-121.644,2.909L702.444,759.592c-41.998-15.865-73.61-47.472-90.7-85.452
		c-17.2-37.979-19.772-82.658-4.02-124.769c15.75-42.335,47.138-74.056,85.003-91.258
		C730.481,440.802,774.937,438.119,816.825,454.094z"/>
	
		<path fill-rule="evenodd" clip-rule="evenodd" fill="none" stroke="#FFFFFF" stroke-width="78.1896" stroke-linecap="round" stroke-linejoin="round" stroke-miterlimit="10" d="
		M1190.012,944.678c40.885,15.527,82.21,13.29,121.644-2.909l428.478-166.653c41.887-16.308,73.275-48.029,90.03-86.229
		c57.971-131.694-71.936-270.538-206.867-218.037l-376.539,146.437L816.825,454.094c-41.888-15.975-86.344-13.183-124.098,4.019
		c-37.865,17.203-69.253,48.923-85.003,91.258c-15.752,42.11-13.181,86.79,4.02,124.769c17.09,37.98,48.702,69.587,90.7,85.452
		L1190.012,944.678z"/>
</g>
</svg>
