<?xml version="1.0" encoding="UTF-8"?>
<svg xmlns="http://www.w3.org/2000/svg" version="1.1" viewBox="0 0 200 49">
  <defs>
    <style>
      .cls-1 {
        fill: #231f20;
      }
    </style>
  </defs>
  <!-- Generator: Adobe Illustrator 28.6.0, SVG Export Plug-In . SVG Version: 1.2.0 Build 709)  -->
  <g>
    <g id="Layer_1">
      <path class="cls-1" d="M175.8,46.4c0,0-.1,0-.2,0-1.4-.1-2.4-1.3-2.3-2.7.7-8.2,3.1-15.9,7.4-23.4-19.7,10.7-49.2,15.6-84.6,13.8C63.8,32.5,28.4,25,7.9,15.5c-1.3-.6-1.8-2.1-1.2-3.3s2.1-1.8,3.3-1.2c34.5,16,120.6,28.7,165.7,6.3-7.8,1.2-15.1.7-21.7-1.3-1.3-.4-2.1-1.8-1.7-3.1.4-1.3,1.8-2.1,3.1-1.7,9.8,3,21.4,2,34.4-2.9l9.3-3.5-6.5,7.5c-8.8,10.1-13.5,20.5-14.4,31.8-.1,1.3-1.2,2.3-2.5,2.3Z"/>
    </g>
  </g>
</svg>