<?xml version="1.0" encoding="utf-8"?>
<!-- Generator: Adobe Illustrator 27.0.0, SVG Export Plug-In . SVG Version: 6.00 Build 0)  -->
<svg version="1.1" xmlns="http://www.w3.org/2000/svg" xmlns:xlink="http://www.w3.org/1999/xlink" x="0px" y="0px"
	 viewBox="0 0 200 200" style="enable-background:new 0 0 200 200;" xml:space="preserve">
<style type="text/css">
	.st0{display:none;}
	.st1{display:inline;}
	.st2{fill:#FFFFFF;}
	.st3{fill:none;stroke:#FFFFFF;stroke-width:6.3387;}
	.st4{fill:none;stroke:#FFFFFF;stroke-width:7.4828;}
	.st5{fill:none;stroke:#FFFFFF;stroke-width:7.4828;stroke-dasharray:7.4034,7.4034;}
</style>
<g id="Layer_1" class="st0">
	<g class="st1">
		<path class="st2" d="M100,13.4c28.6,0,51.9,23.3,51.9,51.9c0,22.4-33.3,83.3-51.9,114.7C81.4,148.6,48.1,87.6,48.1,65.3
			C48.1,36.7,71.4,13.4,100,13.4 M100,100.5c20.7,0,37.6-16.9,37.6-37.6c0-20.7-16.9-37.6-37.6-37.6S62.4,42.2,62.4,62.9
			C62.4,83.6,79.3,100.5,100,100.5 M100,6.4c-32.5,0-58.9,26.3-58.9,58.9c0,32.5,58.9,128.3,58.9,128.3s58.9-95.8,58.9-128.3
			C158.9,32.8,132.5,6.4,100,6.4L100,6.4z M100,93.5c-16.9,0-30.6-13.7-30.6-30.6c0-16.9,13.7-30.6,30.6-30.6s30.6,13.7,30.6,30.6
			C130.6,79.8,116.9,93.5,100,93.5L100,93.5z"/>
	</g>
</g>
<g id="Layer_2">
	<g>
		<path class="st2" d="M100,20l25,50.7l1.4,2.8l3.1,0.5l56,8.1L145,121.6l-2.3,2.2l0.5,3.1l9.6,55.7l-50.1-26.3l-2.8-1.5l-2.8,1.5
			l-50.1,26.3l9.6-55.7l0.5-3.1l-2.3-2.2L14.5,82.1l56-8.1l3.1-0.5l1.4-2.8L100,20 M100,6.4L69.6,68l-68,9.9l49.2,48l-11.6,67.7
			l60.8-32l60.8,32l-11.6-67.7l49.2-48l-68-9.9L100,6.4L100,6.4z"/>
	</g>
</g>
<g id="Layer_3" class="st0">
	<g class="st1">
		<g>
			<g>
				<path class="st3" d="M45.9,113.2c1,1.4,2.3,2.7,3.9,3.7c0-1,0.1-2,0.6-3l2.1-4.3c1.5-3,5.2-4.2,8.2-2.7c3,1.5,4.2,5.2,2.7,8.2
					l-2.1,4.3c-0.5,1-1.3,1.8-2.1,2.4l4.8,2.4c-0.1-1,0.1-2.1,0.6-3.1l5.1-10.1c1.5-3,5.2-4.2,8.2-2.7c3,1.5,4.2,5.2,2.7,8.2
					l-5.1,10.1c-0.5,1-1.2,1.8-2.1,2.4l4.3,2.1c-0.1-1,0.1-2.1,0.6-3.1l6.3-12.5c1.5-3,5.2-4.2,8.2-2.7c3,1.5,4.2,5.2,2.7,8.2
					l-6.3,12.5c-0.5,1-1.2,1.8-2.1,2.4l4.3,2.1c-0.1-1.1,0.1-2.1,0.6-3.1l2.1-4.3c1.5-3,5.2-4.2,8.2-2.7c3,1.5,4.2,5.2,2.7,8.2
					l-2.2,4.3c-0.5,1-1.2,1.7-2,2.3c0.3,0.1,0.6,0.2,1,0.3l8.1,4c3,1.5,6.7,0.3,8.2-2.7c1.1-2.2,0.8-4.7-0.6-6.5
					c0.3-0.5,0.7-1,1-1.5l5.2,2.6c3,1.5,6.7,0.3,8.2-2.7c1.5-3,0.3-6.7-2.7-8.2l-5.1-2.6l0.5-1.1l12.1,6c3,1.5,6.7,0.3,8.2-2.7
					c1.5-3,0.3-6.7-2.7-8.2l-12.1-6.1c0.2-0.4,0.3-0.7,0.4-1.1L148,121c3,1.5,6.7,0.3,8.2-2.7c1.5-3,0.3-6.7-2.7-8.2l-30.8-15.4
					c-1.6-0.1-3.2-0.3-4.8-0.6c-6.2-1.4-11.3-4.7-14.3-8.9l-12,1.3l-0.4,2.3c-1.2,5.7-6.8,9.4-12.5,8.3l-3.5-0.7
					c-0.1,0-0.3-0.1-0.4-0.1L79,75.4l15.2-3.1l7.7-1.5l7.4,1.6l-2.2-7.1l-0.2,0l-15.3-1.5l-7.8-0.7l-25.1,8.4"/>
				<g>
					<path class="st3" d="M148.3,70.6l-18.9,6.3l-27.6-6.1l-22.6,4.6l-0.2,0l-4.3,20.8c0.1,0,0.3,0.1,0.4,0.1l3.5,0.7
						c5.7,1.2,11.3-2.5,12.5-8.3l0.4-2.3l11.9-1.2c0,0,3.7,3.9,6.2,5.5c0,0,0,0,0.1,0c0.3,0.2,0.6,0.3,0.8,0.5c0,0,0.1,0,0.1,0.1
						c0.3,0.2,0.5,0.3,0.8,0.4c0.1,0,0.1,0.1,0.2,0.1c0.2,0.1,0.5,0.2,0.8,0.4c0.1,0,0.2,0.1,0.3,0.1c0.2,0.1,0.5,0.2,0.7,0.3
						c0.1,0.1,0.3,0.1,0.4,0.2c0.2,0.1,0.4,0.2,0.6,0.2c0.2,0.1,0.3,0.1,0.5,0.2c0.2,0.1,0.4,0.1,0.6,0.2c0.2,0.1,0.5,0.1,0.7,0.2
						c0.1,0,0.3,0.1,0.4,0.1c0.4,0.1,0.8,0.2,1.1,0.3c0.4,0.1,0.8,0.2,1.2,0.2c0,0,0.1,0,0.2,0c0.3,0.1,0.7,0.1,1,0.2
						c0,0,0.1,0,0.1,0c0.4,0,0.7,0.1,1.1,0.1h0c0.4,0,0.8,0.1,1.2,0.1h0l30.5,15.3l8.2-2.7"/>
					<path class="st3" d="M102.3,127.7c-3-1.5-6.7-0.3-8.2,2.7l-2.1,4.3c-1.5,3-0.3,6.7,2.7,8.2c3,1.5,6.7,0.3,8.2-2.7l2.2-4.3
						C106.6,132.8,105.3,129.2,102.3,127.7z"/>
					<path class="st3" d="M60.8,106.9c-3-1.5-6.7-0.3-8.2,2.7l-2.1,4.3c-1.5,3-0.3,6.7,2.7,8.2c3,1.5,6.7,0.3,8.2-2.7l2.1-4.3
						C65,112,63.8,108.4,60.8,106.9z"/>
					<path class="st3" d="M92.8,112.6c-3-1.5-6.7-0.3-8.2,2.7l-6.3,12.5c-1.5,3-0.3,6.7,2.7,8.2c3,1.5,6.7,0.3,8.2-2.7l6.3-12.5
						C97,117.8,95.8,114.1,92.8,112.6z"/>
					<path class="st3" d="M77.9,108.1c-3-1.5-6.7-0.3-8.2,2.7L64.7,121c-1.5,3-0.3,6.7,2.7,8.2c3,1.5,6.7,0.3,8.2-2.7l5.1-10.1
						C82.1,113.3,80.9,109.6,77.9,108.1z"/>
				</g>
			</g>
		</g>
		<g>
			<polygon class="st3" points="164.4,116 192.3,106.7 176.1,58.1 148.2,67.4 			"/>
		</g>
		
			<rect x="5.5" y="69.4" transform="matrix(0.3158 -0.9488 0.9488 0.3158 -59.2911 92.7295)" class="st3" width="58.3" height="36.2"/>
		<line class="st3" x1="38.3" y1="107.3" x2="32" y2="105.2"/>
		<line class="st3" x1="168.5" y1="103.4" x2="174" y2="101.7"/>
	</g>
</g>
<g id="Layer_4" class="st0">
	<g class="st1">
		<g>
			<g>
				<g>
					<line class="st4" x1="137.9" y1="191.4" x2="137.9" y2="151.5"/>
					<line class="st4" x1="62.1" y1="151.5" x2="62.1" y2="191.4"/>
					<g>
						<path class="st4" d="M117.4,108.9c0,0,13.6-0.2,21,0c6.1,0.1,12,3.1,16.7,7.7c8.3,8.3,8.3,21.8,0,30.1
							c-6.7,6.7-17.5,6.7-24.1,0c-5.3-5.3-5.3-14,0-19.3c4.3-4.3,11.2-4.3,15.4,0c3.4,3.4,3.4,8.9,0,12.3"/>
						<path class="st4" d="M118.1,108.9c0,0-49-0.2-56.5,0c-6.1,0.1-12,3.1-16.7,7.7c-8.3,8.3-8.3,21.8,0,30.1
							c6.7,6.7,17.5,6.7,24.1,0c5.3-5.3,5.3-14,0-19.3c-4.3-4.3-11.2-4.3-15.4,0c-3.4,3.4-3.4,8.9,0,12.3"/>
					</g>
					<line class="st4" x1="69.2" y1="129.4" x2="130.3" y2="129.4"/>
				</g>
			</g>
			<line class="st4" x1="79.1" y1="191.4" x2="79.1" y2="157.6"/>
			<line class="st4" x1="100.4" y1="191.4" x2="100.4" y2="146.2"/>
			<line class="st4" x1="121.6" y1="191.4" x2="121.6" y2="157.6"/>
		</g>
		<polygon class="st4" points="100,31.6 109.2,50.2 129.7,53.2 114.9,67.7 118.4,88.2 100,78.5 81.6,88.2 85.1,67.7 70.3,53.2 
			90.8,50.2 		"/>
		<g>
			<path class="st4" d="M156.1,174.2c1-0.8,2-1.5,2.9-2.3"/>
			<path class="st5" d="M164.5,166.9c17.1-16.8,27.8-40.1,27.8-65.9c0-51-41.3-92.3-92.3-92.3S7.7,50,7.7,100.9
				c0,27.2,11.8,51.6,30.5,68.5"/>
			<path class="st4" d="M41,171.8c1,0.8,1.9,1.6,2.9,2.3"/>
		</g>
	</g>
</g>
</svg>
